<mxfile host="Electron" modified="2023-12-28T10:04:25.580Z" agent="Mozilla/5.0 (Macintosh; Intel Mac OS X 10_15_7) AppleWebKit/537.36 (KHTML, like Gecko) draw.io/22.1.11 Chrome/114.0.5735.289 Electron/25.9.8 Safari/537.36" etag="oL-5tzbBV1DwEZSWBpBh" version="22.1.11" type="device">
  <diagram name="Page-1" id="J1ulzrVN8QK7nklARanK">
    <mxGraphModel dx="1593" dy="2118" grid="1" gridSize="10" guides="1" tooltips="1" connect="1" arrows="1" fold="1" page="1" pageScale="1" pageWidth="827" pageHeight="1169" math="0" shadow="0">
      <root>
        <mxCell id="0" />
        <mxCell id="1" parent="0" />
        <mxCell id="mPcV5KLfGnNKVoKbEEDN-49" value="&lt;font style=&quot;font-size: 17px;&quot;&gt;Azure ML Workspace&lt;/font&gt;" style="rounded=1;whiteSpace=wrap;html=1;fillStyle=hatch;verticalAlign=top;labelPosition=center;verticalLabelPosition=bottom;align=center;fontSize=17;arcSize=10;" parent="1" vertex="1">
          <mxGeometry x="400" y="-20" width="340" height="760" as="geometry" />
        </mxCell>
        <mxCell id="mPcV5KLfGnNKVoKbEEDN-50" value="&lt;font style=&quot;font-size: 15px;&quot;&gt;Test Runtime&lt;/font&gt;" style="rounded=1;whiteSpace=wrap;html=1;fillStyle=hatch;fontSize=15;verticalAlign=top;labelPosition=center;verticalLabelPosition=bottom;align=center;" parent="1" vertex="1">
          <mxGeometry x="435" y="10" width="260" height="242.5" as="geometry" />
        </mxCell>
        <mxCell id="mPcV5KLfGnNKVoKbEEDN-97" style="edgeStyle=orthogonalEdgeStyle;rounded=0;orthogonalLoop=1;jettySize=auto;html=1;dashed=1;fontSize=15;" parent="1" source="mPcV5KLfGnNKVoKbEEDN-33" target="mPcV5KLfGnNKVoKbEEDN-11" edge="1">
          <mxGeometry relative="1" as="geometry">
            <Array as="points">
              <mxPoint x="620" y="335" />
            </Array>
          </mxGeometry>
        </mxCell>
        <mxCell id="mPcV5KLfGnNKVoKbEEDN-98" value="&lt;font style=&quot;font-size: 15px&quot;&gt;&amp;lt;use&amp;gt;&lt;/font&gt;" style="edgeLabel;html=1;align=center;verticalAlign=middle;resizable=0;points=[];fontSize=15;" parent="mPcV5KLfGnNKVoKbEEDN-97" vertex="1" connectable="0">
          <mxGeometry x="-0.1267" y="3" relative="1" as="geometry">
            <mxPoint x="3" y="24" as="offset" />
          </mxGeometry>
        </mxCell>
        <mxCell id="mPcV5KLfGnNKVoKbEEDN-33" value="Deployment Runtime" style="rounded=1;whiteSpace=wrap;html=1;fillStyle=hatch;fontSize=15;verticalAlign=top;labelPosition=center;verticalLabelPosition=bottom;align=center;" parent="1" vertex="1">
          <mxGeometry x="435" y="550" width="260" height="140" as="geometry" />
        </mxCell>
        <mxCell id="mPcV5KLfGnNKVoKbEEDN-99" style="edgeStyle=orthogonalEdgeStyle;rounded=0;orthogonalLoop=1;jettySize=auto;html=1;dashed=1;" parent="1" source="mPcV5KLfGnNKVoKbEEDN-2" target="mPcV5KLfGnNKVoKbEEDN-33" edge="1">
          <mxGeometry relative="1" as="geometry">
            <Array as="points">
              <mxPoint x="570" y="565" />
              <mxPoint x="570" y="565" />
            </Array>
          </mxGeometry>
        </mxCell>
        <mxCell id="mPcV5KLfGnNKVoKbEEDN-100" value="&amp;lt;expose&amp;gt;" style="edgeLabel;html=1;align=center;verticalAlign=middle;resizable=0;points=[];fontSize=15;" parent="mPcV5KLfGnNKVoKbEEDN-99" vertex="1" connectable="0">
          <mxGeometry x="-0.2325" y="1" relative="1" as="geometry">
            <mxPoint x="6" as="offset" />
          </mxGeometry>
        </mxCell>
        <mxCell id="mPcV5KLfGnNKVoKbEEDN-2" value="Deployment Endpoint" style="sketch=0;outlineConnect=0;fontColor=#232F3E;gradientColor=none;fillColor=#8C4FFF;strokeColor=none;dashed=0;verticalLabelPosition=top;verticalAlign=bottom;align=center;html=1;fontSize=15;fontStyle=0;aspect=fixed;pointerEvents=1;shape=mxgraph.aws4.endpoint;labelPosition=center;" parent="1" vertex="1">
          <mxGeometry x="460" y="430" width="70" height="70" as="geometry" />
        </mxCell>
        <mxCell id="mPcV5KLfGnNKVoKbEEDN-11" value="Model&lt;br&gt;" style="sketch=0;outlineConnect=0;fontColor=#232F3E;gradientColor=none;fillColor=#01A88D;strokeColor=none;dashed=0;verticalLabelPosition=bottom;verticalAlign=top;align=center;html=1;fontSize=15;fontStyle=0;aspect=fixed;pointerEvents=1;shape=mxgraph.aws4.sagemaker_model;" parent="1" vertex="1">
          <mxGeometry x="460" y="300" width="70" height="70" as="geometry" />
        </mxCell>
        <mxCell id="mPcV5KLfGnNKVoKbEEDN-72" style="edgeStyle=orthogonalEdgeStyle;rounded=0;orthogonalLoop=1;jettySize=auto;html=1;fontSize=15;" parent="1" source="mPcV5KLfGnNKVoKbEEDN-89" target="mPcV5KLfGnNKVoKbEEDN-11" edge="1">
          <mxGeometry relative="1" as="geometry">
            <mxPoint x="319" y="270" as="sourcePoint" />
            <Array as="points">
              <mxPoint x="240" y="390" />
              <mxPoint x="240" y="335" />
            </Array>
          </mxGeometry>
        </mxCell>
        <mxCell id="mPcV5KLfGnNKVoKbEEDN-73" value="6. Create model using flow &lt;br&gt;(If Accuracy &amp;gt;%60)" style="edgeLabel;html=1;align=center;verticalAlign=middle;resizable=0;points=[];fontSize=15;" parent="mPcV5KLfGnNKVoKbEEDN-72" vertex="1" connectable="0">
          <mxGeometry x="0.4206" y="-3" relative="1" as="geometry">
            <mxPoint x="-55" y="-3" as="offset" />
          </mxGeometry>
        </mxCell>
        <mxCell id="mPcV5KLfGnNKVoKbEEDN-78" style="edgeStyle=orthogonalEdgeStyle;rounded=0;orthogonalLoop=1;jettySize=auto;html=1;fontSize=15;" parent="1" source="mPcV5KLfGnNKVoKbEEDN-89" target="mPcV5KLfGnNKVoKbEEDN-33" edge="1">
          <mxGeometry relative="1" as="geometry">
            <mxPoint x="269" y="270" as="sourcePoint" />
            <Array as="points">
              <mxPoint x="110" y="620" />
            </Array>
          </mxGeometry>
        </mxCell>
        <mxCell id="mPcV5KLfGnNKVoKbEEDN-79" value="8. Create Deployment" style="edgeLabel;html=1;align=center;verticalAlign=middle;resizable=0;points=[];fontSize=15;" parent="mPcV5KLfGnNKVoKbEEDN-78" vertex="1" connectable="0">
          <mxGeometry x="0.6103" y="-1" relative="1" as="geometry">
            <mxPoint x="-149" y="-21" as="offset" />
          </mxGeometry>
        </mxCell>
        <mxCell id="mPcV5KLfGnNKVoKbEEDN-32" value="Deployment VM" style="image;aspect=fixed;html=1;points=[];align=center;fontSize=16;image=img/lib/azure2/compute/Virtual_Machine.svg;" parent="1" vertex="1">
          <mxGeometry x="465" y="572.0000000000001" width="70" height="64.92" as="geometry" />
        </mxCell>
        <mxCell id="mPcV5KLfGnNKVoKbEEDN-59" style="edgeStyle=orthogonalEdgeStyle;rounded=0;orthogonalLoop=1;jettySize=auto;html=1;fontSize=15;" parent="1" source="mPcV5KLfGnNKVoKbEEDN-89" target="mPcV5KLfGnNKVoKbEEDN-50" edge="1">
          <mxGeometry relative="1" as="geometry">
            <mxPoint x="340.99" y="225.25999999999976" as="sourcePoint" />
            <mxPoint x="600" y="170" as="targetPoint" />
            <Array as="points">
              <mxPoint x="120" y="183" />
            </Array>
          </mxGeometry>
        </mxCell>
        <mxCell id="mPcV5KLfGnNKVoKbEEDN-61" value="4. Run Flow Evaluation" style="edgeLabel;html=1;align=center;verticalAlign=middle;resizable=0;points=[];fontSize=15;" parent="mPcV5KLfGnNKVoKbEEDN-59" vertex="1" connectable="0">
          <mxGeometry x="-0.0286" y="2" relative="1" as="geometry">
            <mxPoint x="2" y="1" as="offset" />
          </mxGeometry>
        </mxCell>
        <mxCell id="mPcV5KLfGnNKVoKbEEDN-62" style="edgeStyle=orthogonalEdgeStyle;rounded=0;orthogonalLoop=1;jettySize=auto;html=1;fontSize=15;dashed=1;" parent="1" source="mPcV5KLfGnNKVoKbEEDN-50" target="mPcV5KLfGnNKVoKbEEDN-89" edge="1">
          <mxGeometry relative="1" as="geometry">
            <mxPoint x="341" y="251" as="targetPoint" />
            <mxPoint x="600" y="196" as="sourcePoint" />
            <Array as="points">
              <mxPoint x="140" y="220" />
            </Array>
          </mxGeometry>
        </mxCell>
        <mxCell id="mPcV5KLfGnNKVoKbEEDN-63" value="5. Get Evaluation Results" style="edgeLabel;html=1;align=center;verticalAlign=middle;resizable=0;points=[];fontSize=15;" parent="mPcV5KLfGnNKVoKbEEDN-62" vertex="1" connectable="0">
          <mxGeometry x="0.0316" relative="1" as="geometry">
            <mxPoint x="-18" y="-1" as="offset" />
          </mxGeometry>
        </mxCell>
        <mxCell id="mPcV5KLfGnNKVoKbEEDN-74" style="edgeStyle=orthogonalEdgeStyle;rounded=0;orthogonalLoop=1;jettySize=auto;html=1;fontSize=15;" parent="1" source="mPcV5KLfGnNKVoKbEEDN-89" target="mPcV5KLfGnNKVoKbEEDN-2" edge="1">
          <mxGeometry relative="1" as="geometry">
            <mxPoint x="294" y="270" as="sourcePoint" />
            <mxPoint x="610" y="540" as="targetPoint" />
            <Array as="points">
              <mxPoint x="200" y="430" />
              <mxPoint x="200" y="465" />
            </Array>
          </mxGeometry>
        </mxCell>
        <mxCell id="mPcV5KLfGnNKVoKbEEDN-75" value="7. Create Endpoint" style="edgeLabel;html=1;align=center;verticalAlign=middle;resizable=0;points=[];fontSize=15;" parent="mPcV5KLfGnNKVoKbEEDN-74" vertex="1" connectable="0">
          <mxGeometry x="-0.1791" relative="1" as="geometry">
            <mxPoint x="17" y="-15" as="offset" />
          </mxGeometry>
        </mxCell>
        <mxCell id="mPcV5KLfGnNKVoKbEEDN-89" value="&lt;font style=&quot;font-size: 15px&quot;&gt;Github &lt;br&gt;Pipeline&lt;/font&gt;" style="dashed=0;outlineConnect=0;html=1;align=right;labelPosition=left;verticalLabelPosition=middle;verticalAlign=middle;shape=mxgraph.weblogos.github;fontSize=15;aspect=fixed;" parent="1" vertex="1">
          <mxGeometry x="60" y="340" width="110" height="110" as="geometry" />
        </mxCell>
        <mxCell id="mPcV5KLfGnNKVoKbEEDN-92" value="Deployment VM &lt;br style=&quot;font-size: 16px;&quot;&gt;Environment" style="sketch=0;outlineConnect=0;fontColor=#232F3E;gradientColor=none;fillColor=#DD344C;strokeColor=none;dashed=0;verticalLabelPosition=bottom;verticalAlign=top;align=center;html=1;fontSize=16;fontStyle=0;aspect=fixed;pointerEvents=1;shape=mxgraph.aws4.development_environment;" parent="1" vertex="1">
          <mxGeometry x="600" y="572.0000000000001" width="70" height="63.72" as="geometry" />
        </mxCell>
        <mxCell id="mPcV5KLfGnNKVoKbEEDN-101" value="" style="endArrow=classic;html=1;rounded=0;edgeStyle=orthogonalEdgeStyle;" parent="1" source="mPcV5KLfGnNKVoKbEEDN-89" target="mPcV5KLfGnNKVoKbEEDN-50" edge="1">
          <mxGeometry width="50" height="50" relative="1" as="geometry">
            <mxPoint x="580" y="300" as="sourcePoint" />
            <mxPoint x="600" y="143" as="targetPoint" />
            <Array as="points">
              <mxPoint x="90" y="147" />
            </Array>
          </mxGeometry>
        </mxCell>
        <mxCell id="mPcV5KLfGnNKVoKbEEDN-102" value="3. Create Test Runtime" style="edgeLabel;html=1;align=center;verticalAlign=middle;resizable=0;points=[];fontSize=15;" parent="mPcV5KLfGnNKVoKbEEDN-101" vertex="1" connectable="0">
          <mxGeometry x="0.0438" y="1" relative="1" as="geometry">
            <mxPoint x="12" as="offset" />
          </mxGeometry>
        </mxCell>
        <mxCell id="mPcV5KLfGnNKVoKbEEDN-103" value="" style="endArrow=classic;html=1;rounded=0;edgeStyle=orthogonalEdgeStyle;" parent="1" source="mPcV5KLfGnNKVoKbEEDN-89" target="mPcV5KLfGnNKVoKbEEDN-50" edge="1">
          <mxGeometry width="50" height="50" relative="1" as="geometry">
            <mxPoint x="580" y="400" as="sourcePoint" />
            <mxPoint x="600" y="220" as="targetPoint" />
            <Array as="points">
              <mxPoint x="160" y="250" />
            </Array>
          </mxGeometry>
        </mxCell>
        <mxCell id="mPcV5KLfGnNKVoKbEEDN-104" value="9. Delete Test Runtime" style="edgeLabel;html=1;align=center;verticalAlign=middle;resizable=0;points=[];fontSize=15;" parent="mPcV5KLfGnNKVoKbEEDN-103" vertex="1" connectable="0">
          <mxGeometry x="0.0032" y="-1" relative="1" as="geometry">
            <mxPoint x="-40" y="-1" as="offset" />
          </mxGeometry>
        </mxCell>
        <mxCell id="mPcV5KLfGnNKVoKbEEDN-56" style="edgeStyle=orthogonalEdgeStyle;rounded=0;orthogonalLoop=1;jettySize=auto;html=1;exitX=0;exitY=0.5;exitDx=0;exitDy=0;entryX=0;entryY=0.5;entryDx=0;entryDy=0;fontSize=15;" parent="1" source="mPcV5KLfGnNKVoKbEEDN-50" target="mPcV5KLfGnNKVoKbEEDN-50" edge="1">
          <mxGeometry relative="1" as="geometry" />
        </mxCell>
        <mxCell id="mPcV5KLfGnNKVoKbEEDN-25" value="Test VM &lt;br&gt;Environment" style="sketch=0;outlineConnect=0;fontColor=#232F3E;gradientColor=none;fillColor=#DD344C;strokeColor=none;dashed=0;verticalLabelPosition=bottom;verticalAlign=top;align=center;html=1;fontSize=15;fontStyle=0;aspect=fixed;pointerEvents=1;shape=mxgraph.aws4.development_environment;" parent="1" vertex="1">
          <mxGeometry x="595" y="125" width="70" height="63.72" as="geometry" />
        </mxCell>
        <mxCell id="mPcV5KLfGnNKVoKbEEDN-18" value="Test VM" style="image;aspect=fixed;html=1;points=[];align=center;fontSize=15;image=img/lib/azure2/compute/Virtual_Machine.svg;" parent="1" vertex="1">
          <mxGeometry x="465" y="125" width="70" height="64.93" as="geometry" />
        </mxCell>
        <mxCell id="rs4TAcphrp-Agjxt_lAX-2" value="ML Compute Managed Identity" style="image;aspect=fixed;html=1;points=[];align=center;fontSize=12;image=img/lib/azure2/identity/Managed_Identities.svg;" vertex="1" parent="1">
          <mxGeometry x="539.0899999999999" y="20" width="61.82" height="60" as="geometry" />
        </mxCell>
        <mxCell id="rs4TAcphrp-Agjxt_lAX-5" value="" style="endArrow=classic;html=1;rounded=0;entryX=0.015;entryY=0.5;entryDx=0;entryDy=0;entryPerimeter=0;" edge="1" parent="1" target="rs4TAcphrp-Agjxt_lAX-2">
          <mxGeometry width="50" height="50" relative="1" as="geometry">
            <mxPoint x="40" y="340" as="sourcePoint" />
            <mxPoint x="50" y="20" as="targetPoint" />
            <Array as="points">
              <mxPoint x="40" y="50" />
            </Array>
          </mxGeometry>
        </mxCell>
        <mxCell id="rs4TAcphrp-Agjxt_lAX-6" value="1. Create Managed Identity for VM" style="edgeLabel;html=1;align=center;verticalAlign=middle;resizable=0;points=[];fontSize=15;" vertex="1" connectable="0" parent="rs4TAcphrp-Agjxt_lAX-5">
          <mxGeometry x="0.2649" y="-2" relative="1" as="geometry">
            <mxPoint as="offset" />
          </mxGeometry>
        </mxCell>
        <mxCell id="rs4TAcphrp-Agjxt_lAX-7" value="" style="endArrow=classic;html=1;rounded=0;entryX=-0.106;entryY=0.978;entryDx=0;entryDy=0;entryPerimeter=0;" edge="1" parent="1" target="rs4TAcphrp-Agjxt_lAX-2">
          <mxGeometry width="50" height="50" relative="1" as="geometry">
            <mxPoint x="60" y="340" as="sourcePoint" />
            <mxPoint x="110" y="290" as="targetPoint" />
            <Array as="points">
              <mxPoint x="60" y="80" />
            </Array>
          </mxGeometry>
        </mxCell>
        <mxCell id="rs4TAcphrp-Agjxt_lAX-8" value="2. Assign &quot;ML Scientist Role&quot; for ML Workspace" style="edgeLabel;html=1;align=center;verticalAlign=middle;resizable=0;points=[];fontSize=15;" vertex="1" connectable="0" parent="rs4TAcphrp-Agjxt_lAX-7">
          <mxGeometry x="0.2538" y="2" relative="1" as="geometry">
            <mxPoint as="offset" />
          </mxGeometry>
        </mxCell>
      </root>
    </mxGraphModel>
  </diagram>
</mxfile>
